# xmcd
#
# Track frame offsets:
#	150
#	20590
#	37635
#	52967
#	70852
#	86850
#	103907
#	123032
#	137770
#	158512
#	174557
#	185625
#	201510
#	216527
#	234875
#	252027
#
# Disc length: 3590 seconds
#
# Revision: 0
# Processed by: cddbd v1.5.2PL0 Copyright (c) Steve Scherf et al.
# Submitted via: audiograbber 1.83.01
#
DISCID=da0e0410
DTITLE=Howard Carpendale - Eine Stunde für dich
DYEAR=1900
DGENRE=Deutsche Schlager
TTITLE0=Es geht um mehr
TTITLE1=Jetzt bin ich 34
TTITLE2=Gentle on my mind
TTITLE3=Du fängst den Wind niemals ein
TTITLE4=Liberty Straße
TTITLE5=Bin ich einer von vielen
TTITLE6=Honey
TTITLE7=Tränen trocknen schneller im Wind
TTITLE8=Dieses Gefühl
TTITLE9=Wie frei willst du sein
TTITLE10=Memphis Tennesse
TTITLE11=Seit es den Andern gibt
TTITLE12=Nimm den nächsten Zug
TTITLE13=Als sie noch bei mir war
TTITLE14=And I Love Her
TTITLE15=und da bin ich und sing`ein Lied
EXTD=
EXTT0=
EXTT1=
EXTT2=
EXTT3=
EXTT4=
EXTT5=
EXTT6=
EXTT7=
EXTT8=
EXTT9=
EXTT10=
EXTT11=
EXTT12=
EXTT13=
EXTT14=
EXTT15=
PLAYORDER=
